<svg xmlns="http://www.w3.org/2000/svg" width="20" height="20" viewBox="0 0 20 20" fill="none">
<path d="M14.4422 6.00003C14.0612 6.00703 13.4762 6.20703 10.6632 7.36203C8.68865 8.18634 6.71961 9.02369 4.75617 9.87403C4.27617 10.063 4.02617 10.247 4.00317 10.427C3.95917 10.773 4.46317 10.88 5.09717 11.084C5.61417 11.25 6.31017 11.444 6.67217 11.452C7.00017 11.459 7.36617 11.325 7.77017 11.052C10.5302 9.21203 11.9532 8.28303 12.0432 8.26303C12.1062 8.24903 12.1932 8.23104 12.2532 8.28304C12.3122 8.33504 12.3062 8.43304 12.2992 8.46004C12.2492 8.67104 9.65817 10.998 9.50917 11.151L9.43717 11.223C8.88717 11.766 8.33217 12.121 9.29017 12.744C10.1562 13.307 10.6602 13.666 11.5502 14.244C12.1202 14.612 12.5672 15.049 13.1552 14.996C13.4262 14.971 13.7052 14.72 13.8482 13.97C14.1832 12.2 14.8432 8.36204 14.9952 6.78004C15.0044 6.64881 14.9987 6.51697 14.9782 6.38704C14.9658 6.28213 14.9144 6.18573 14.8342 6.11704C14.7132 6.01904 14.5252 5.99903 14.4422 6.00003Z" fill="white"/>
</svg>