<svg width="544" height="544" viewBox="0 0 544 544" fill="none" xmlns="http://www.w3.org/2000/svg">
<mask id="path-1-inside-1_183_902" fill="white">
<path d="M0.000244141 85.2219L0.000240415 1.52588e-05L85.2221 1.15336e-05L85.2222 85.2219L0.000244141 85.2219Z"/>
</mask>
<path d="M0.000240415 1.52588e-05L0.000239366 -24L-23.9998 -24L-23.9998 1.63079e-05L0.000240415 1.52588e-05ZM24.0002 85.2219L24.0002 1.42097e-05L-23.9998 1.63079e-05L-23.9998 85.2219L24.0002 85.2219ZM0.000241465 24L85.2222 24L85.2221 -24L0.000239366 -24L0.000241465 24Z" fill="#5D626A" mask="url(#path-1-inside-1_183_902)"/>
<mask id="path-3-inside-2_183_902" fill="white">
<path d="M544 85.2219L544 1.52588e-05L458.778 1.42425e-05L458.778 85.2219L544 85.2219Z"/>
</mask>
<path d="M544 1.52588e-05L544 -24L568 -24L568 1.5545e-05L544 1.52588e-05ZM520 85.2219L520 1.49726e-05L568 1.5545e-05L568 85.2219L520 85.2219ZM544 24L458.778 24L458.778 -24L544 -24L544 24Z" fill="#5D626A" mask="url(#path-3-inside-2_183_902)"/>
<mask id="path-5-inside-3_183_902" fill="white">
<path d="M0 458.778L-3.72517e-06 544L85.2219 544L85.2219 458.778L0 458.778Z"/>
</mask>
<path d="M-3.72517e-06 544L-4.77424e-06 568L-24 568L-24 544L-3.72517e-06 544ZM24 458.778L24 544L-24 544L-24 458.778L24 458.778ZM-2.67609e-06 520L85.2219 520L85.2219 568L-4.77424e-06 568L-2.67609e-06 520Z" fill="#5D626A" mask="url(#path-5-inside-3_183_902)"/>
<mask id="path-7-inside-4_183_902" fill="white">
<path d="M544 458.778L544 544L458.778 544L458.778 458.778L544 458.778Z"/>
</mask>
<path d="M544 544L544 568L568 568L568 544L544 544ZM520 458.778L520 544L568 544L568 458.778L520 458.778ZM544 520L458.778 520L458.778 568L544 568L544 520Z" fill="#5D626A" mask="url(#path-7-inside-4_183_902)"/>
<path d="M78.1201 47.5831V136.397H101.218V70.8015H170.767V136.397H193.992V47.5831H78.1201Z" fill="#5D626A"/>
<path d="M292.306 47.5831H201.563V136.397H224.661V113.305H292.306C310.327 113.305 325.049 98.5875 325.049 80.4441C325.049 62.4276 310.327 47.5831 292.306 47.5831ZM292.306 90.0867H224.661V70.8015H292.306C297.636 70.8015 301.951 75.1153 301.951 80.4441C301.951 85.7729 297.636 90.0867 292.306 90.0867Z" fill="#5D626A"/>
<path d="M427.548 47.5831H361.934C337.44 47.5831 317.515 67.6296 317.515 91.9899C317.515 116.477 337.44 136.397 361.934 136.397H427.548C452.043 136.397 471.968 116.477 471.968 91.9899C471.968 67.6296 452.043 47.5831 427.548 47.5831ZM427.548 113.305H361.934C350.131 113.305 340.613 103.789 340.613 91.9899C340.613 80.3172 350.131 70.8015 361.934 70.8015H427.548C439.224 70.8015 448.743 80.3172 448.743 91.9899C448.743 103.789 439.224 113.305 427.548 113.305Z" fill="#5D626A"/>
<path d="M193.992 162.227V139.009H78.1201V227.823H193.992V204.731H101.218V193.185H193.992V169.967H101.218V162.227H193.992Z" fill="#5D626A"/>
<path d="M325.049 139.009H300.047L289.26 169.967H224.661V139.009H201.563V227.823H224.661V193.185H287.991L300.047 227.823H325.049L309.693 183.416L325.049 139.009Z" fill="#5D626A"/>
<path d="M325.13 139.009V162.227H371.453V227.823H394.551V162.227H441.001V139.009H325.13Z" fill="#5D626A"/>
<path d="M78.1201 230.435V319.248H101.218V253.653H170.767V319.248H193.992V230.435H78.1201Z" fill="#5D626A"/>
<path d="M292.306 230.435H201.563V319.248H224.661V296.157H292.306C310.327 296.157 325.049 281.439 325.049 263.296C325.049 245.279 310.327 230.435 292.306 230.435ZM292.306 272.938H224.661V253.653H292.306C297.636 253.653 301.951 257.967 301.951 263.296C301.951 268.625 297.636 272.938 292.306 272.938Z" fill="#5D626A"/>
<path d="M386.429 230.435L363.203 296.157H348.228V230.435H325.13V319.248H379.575L402.8 253.653H417.776V319.248H441.001V230.435H386.429Z" fill="#5D626A"/>
<path d="M197.799 349.012C197.799 334.041 185.615 321.86 170.767 321.86H78.1201V410.674H168.863C184.854 410.674 197.799 397.733 197.799 381.746C197.799 375.529 195.768 369.82 192.469 364.999C195.768 360.558 197.799 354.975 197.799 349.012ZM101.218 345.079H170.767C172.924 345.079 174.574 346.855 174.574 349.012C174.574 351.042 172.924 352.818 170.767 352.818H101.218V345.079ZM168.863 387.583H101.218V376.037H168.863C172.036 376.037 174.574 378.574 174.574 381.746C174.574 384.918 172.036 387.583 168.863 387.583Z" fill="#5D626A"/>
<path d="M317.558 345.079V321.86H201.687V410.674H317.558V387.583H224.785V376.037H317.558V352.818H224.785V345.079H317.558Z" fill="#5D626A"/>
<path d="M325.13 321.86V345.079H371.453V410.674H394.551V345.079H441.001V321.86H325.13Z" fill="#5D626A"/>
<path d="M525.735 376.037V352.818H448.572V376.037H525.735Z" fill="#5D626A"/>
<path d="M124.443 479.008V413.286H78.1201V436.505H101.218V479.008H78.1201V502.1H147.542V479.008H124.443Z" fill="#5D626A"/>
<path d="M271.205 467.463V413.286H155.334V436.505H247.98V444.244H155.334V502.1H271.205V479.008H178.432V467.463H271.205Z" fill="#5D626A"/>
<path d="M278.777 413.286V502.1H425.488V413.286H278.777ZM336.141 479.008H301.875V436.505H351.117L336.141 479.008ZM402.263 479.008H360.762L375.738 436.505H402.263V479.008Z" fill="#5D626A"/>
</svg>