
<svg width="544" height="544" viewBox="0 0 544 544" fill="none" xmlns="http://www.w3.org/2000/svg">
<mask id="path-1-inside-1_564_1434" fill="white">
<path d="M0 85.2219L-3.72517e-06 1.52588e-05L85.2219 1.15336e-05L85.2219 85.2219L0 85.2219Z"/>
</mask>
<path d="M-3.72517e-06 1.52588e-05L-4.77424e-06 -24L-24 -24L-24 1.63079e-05L-3.72517e-06 1.52588e-05ZM24 85.2219L24 1.42097e-05L-24 1.63079e-05L-24 85.2219L24 85.2219ZM-2.67609e-06 24L85.2219 24L85.2219 -24L-4.77424e-06 -24L-2.67609e-06 24Z" fill="#5D626A" mask="url(#path-1-inside-1_564_1434)"/>
<mask id="path-3-inside-2_564_1434" fill="white">
<path d="M544 85.2219L544 1.52588e-05L458.778 1.42425e-05L458.778 85.2219L544 85.2219Z"/>
</mask>
<path d="M544 1.52588e-05L544 -24L568 -24L568 1.5545e-05L544 1.52588e-05ZM520 85.2219L520 1.49726e-05L568 1.5545e-05L568 85.2219L520 85.2219ZM544 24L458.778 24L458.778 -24L544 -24L544 24Z" fill="#5D626A" mask="url(#path-3-inside-2_564_1434)"/>
<mask id="path-5-inside-3_564_1434" fill="white">
<path d="M0 458.778L-3.72517e-06 544L85.2219 544L85.2219 458.778L0 458.778Z"/>
</mask>
<path d="M-3.72517e-06 544L-4.77424e-06 568L-24 568L-24 544L-3.72517e-06 544ZM24 458.778L24 544L-24 544L-24 458.778L24 458.778ZM-2.67609e-06 520L85.2219 520L85.2219 568L-4.77424e-06 568L-2.67609e-06 520Z" fill="#5D626A" mask="url(#path-5-inside-3_564_1434)"/>
<mask id="path-7-inside-4_564_1434" fill="white">
<path d="M544 458.778L544 544L458.778 544L458.778 458.778L544 458.778Z"/>
</mask>
<path d="M544 544L544 568L568 568L568 544L544 544ZM520 458.778L520 544L568 544L568 458.778L520 458.778ZM544 520L458.778 520L458.778 568L544 568L544 520Z" fill="#5D626A" mask="url(#path-7-inside-4_564_1434)"/>
<path fill-rule="evenodd" clip-rule="evenodd" d="M78.1201 47.583V136.397H101.218V70.8014H170.767V136.397H193.992V47.583H78.1201ZM292.306 47.583H201.563V136.397H224.661V113.305H292.306C302.879 113.305 312.316 108.239 318.311 100.387C322.249 120.873 340.311 136.397 361.934 136.397H427.548C452.043 136.397 471.968 116.477 471.968 91.9898C471.968 67.6295 452.043 47.583 427.548 47.583H361.934C345.439 47.583 331.016 56.6742 323.355 70.0517C318.993 57.0561 306.702 47.583 292.306 47.583ZM292.306 90.0867H224.661V70.8014H292.306C297.636 70.8014 301.951 75.1152 301.951 80.4441C301.951 85.7729 297.636 90.0867 292.306 90.0867ZM361.934 113.305H427.548C439.224 113.305 448.743 103.789 448.743 91.9898C448.743 80.3172 439.224 70.8014 427.548 70.8014H361.934C350.131 70.8014 340.613 80.3172 340.613 91.9898C340.613 103.789 350.131 113.305 361.934 113.305ZM193.992 162.227V139.009H78.1201V227.822H193.992V204.731H101.218V193.185H193.992V169.967H101.218V162.227H193.992ZM300.047 139.009H325.049L309.693 183.416L325.049 227.822H300.047L287.991 193.185H224.661V227.822H201.563V139.009H224.661V169.967H289.26L300.047 139.009ZM325.13 139.009V162.227H371.453V227.822H394.551V162.227H441.001V139.009H325.13ZM78.1201 319.248V230.435H193.992V319.248H170.767V253.653H101.218V319.248H78.1201ZM292.306 230.435H201.563V319.248H224.661V296.157H292.306C310.327 296.157 325.049 281.439 325.049 263.296C325.049 245.279 310.327 230.435 292.306 230.435ZM292.306 272.938H224.661V253.653H292.306C297.636 253.653 301.951 257.967 301.951 263.296C301.951 268.624 297.636 272.938 292.306 272.938ZM363.203 296.157L386.429 230.435H441.001V319.248H417.776V253.653H402.8L379.575 319.248H325.13V230.435H348.228V296.157H363.203ZM197.799 349.012C197.799 334.041 185.615 321.86 170.767 321.86H78.1201V410.674H168.863C184.854 410.674 197.799 397.733 197.799 381.746C197.799 375.529 195.768 369.82 192.469 364.998C195.768 360.558 197.799 354.975 197.799 349.012ZM101.218 345.079H170.767C172.924 345.079 174.574 346.855 174.574 349.012C174.574 351.042 172.924 352.818 170.767 352.818H101.218V345.079ZM168.863 387.582H101.218V376.037H168.863C172.036 376.037 174.574 378.574 174.574 381.746C174.574 384.918 172.036 387.582 168.863 387.582ZM317.558 321.86V345.079H224.785V352.818H317.558V376.037H224.785V387.582H317.558V410.674H201.687V321.86H317.558ZM325.13 321.86V345.079H371.453V410.674H394.551V345.079H441.001V321.86H325.13ZM525.735 352.818V376.037H448.572V352.818H525.735ZM78 502V413H194.204V502H78ZM101.164 478.86H170.912V467.29H101.164V478.86ZM101.164 444.023H170.912V436.267H101.164V444.023ZM318 413V467.29H224.961V478.86H318V502H201.796V444.023H294.708V436.267H201.796V413H318Z" fill="#5D626A"/>
</svg>